# xmcd
#
# Track frame offsets: 
#        150
#        10304
#        20187
#        41581
#        66041
#        96805
#        117148
#        129376
#        147341
#        165584
#        187975
#        206449
#        231312
#        247672
#        266863
#        283890
#
# Disc length: 3984 seconds
#
# Revision: 0
# Processed by: cddbd v1.5.2PL0 Copyright (c) Steve Scherf et al.
# Submitted via: ExactAudioCopy v1.0b3
#
DISCID=e30f8e10
DTITLE=Lebeda and Frenzel - Lebeda and Frenzel - Live im Schmitz
DYEAR=2008
DGENRE=Blues
TTITLE0=Kansas City
TTITLE1=Hello Josephine
TTITLE2=Blues for B
TTITLE3=Honeysuckle Rose
TTITLE4=Stairways to the Stars
TTITLE5=Nighttrain
TTITLE6=Pinetops Boogie Woogie
TTITLE7=One sweet letter from you
TTITLE8=Shine
TTITLE9=Moonglow
TTITLE10=Rollin´ Boy
TTITLE11=I can see clearly now
TTITLE12=Tuxedo Junction
TTITLE13=It shoud have been me
TTITLE14=In the heat of the night
TTITLE15=Lay around andlove on you
EXTD=
EXTT0=
EXTT1=
EXTT2=
EXTT3=
EXTT4=
EXTT5=
EXTT6=
EXTT7=
EXTT8=
EXTT9=
EXTT10=
EXTT11=
EXTT12=
EXTT13=
EXTT14=
EXTT15=
PLAYORDER=
